<?xml version="1.0" standalone="no"?><!DOCTYPE svg PUBLIC "-//W3C//DTD SVG 1.1//EN" "http://www.w3.org/Graphics/SVG/1.1/DTD/svg11.dtd"><svg t="1716340883002" class="icon" viewBox="0 0 1024 1024" version="1.1" xmlns="http://www.w3.org/2000/svg" p-id="4818" xmlns:xlink="http://www.w3.org/1999/xlink" width="256" height="256"><path d="M512 512m-512 0a512 512 0 1 0 1024 0 512 512 0 1 0-1024 0Z" fill="#F06262" p-id="4819"></path><path d="M516.284519 822.627615c-170.099682 0-308.485356-138.385674-308.485356-308.485356 0-102.631364 50.827247-198.248971 135.964921-255.768636 24.511732-16.568234 57.802444-10.115749 74.357824 14.391699 16.559665 24.511732 10.115749 57.802444-14.391699 74.357824C348.117155 384.702661 314.912134 447.136669 314.912134 514.142259c0 111.03759 90.334795 201.372385 201.372385 201.372385s201.372385-90.334795 201.372385-201.372385c0-67.018444-33.209305-129.456736-88.830929-167.023397-24.511732-16.555381-30.964218-49.846092-14.404552-74.357824 16.551096-24.511732 49.837523-30.968502 74.353539-14.408837C773.92549 315.867582 824.769874 411.489473 824.769874 514.142259c0 170.099682-138.385674 308.485356-308.485355 308.485356z" fill="#F0F0F0" p-id="4820"></path><path d="M516.284519 377.937406c-29.580318 0-53.556485-23.980452-53.556486-53.556485V186.376569c0-29.580318 23.976167-53.556485 53.556486-53.556485 29.576033 0 53.556485 23.976167 53.556485 53.556485v138.004352c0 29.580318-23.980452 53.556485-53.556485 53.556485z" fill="#F0F0F0" p-id="4821"></path></svg>